Coordinates
version=1
nRows=29
nColumns=24
inDegrees=yes

Units are S.I. units (second, meters, Newtons, ...)
Angles are in degrees.

endheader
time	pelvis_tilt	pelvis_list	pelvis_rotation	pelvis_tx	pelvis_ty	pelvis_tz	hip_flexion_r	hip_adduction_r	hip_rotation_r	knee_angle_r	ankle_angle_r	subtalar_angle_r	mtp_angle_r	hip_flexion_l	hip_adduction_l	hip_rotation_l	knee_angle_l	ankle_angle_l	subtalar_angle_l	mtp_angle_l	lumbar_extension	lumbar_bending	lumbar_rotation
      4.03500000	    -10.89283783	     13.84463806	     -1.90445038	     -0.26526697	     -0.05225951	      0.69395307	     20.02633732	    -17.03591666	      3.76851404	    -64.58579857	    -34.73293502	     -0.08632092	     54.00457091	     32.89508781	     15.46421896	      2.37142856	    -33.47131443	     13.42907288	     -7.61810523	    -30.57637510	      8.94532158	    -15.76430508	     -1.15276329
      4.04000000	    -10.74981069	     13.87558674	     -1.89362000	     -0.25789378	     -0.05047016	      0.69373176	     20.93137899	    -17.08486107	      3.75887428	    -65.69878009	    -33.61125734	     -0.81781971	     52.74382561	     31.91407766	     15.66001298	      2.71891439	    -32.89071481	     13.64231578	     -7.89691532	    -30.88085706	      8.94044733	    -15.79879755	     -1.24307110
      4.04500000	    -10.63826777	     13.91370143	     -1.85459470	     -0.25053177	     -0.04867895	      0.69340888	     21.84908976	    -17.16803931	      3.72652943	    -66.68768353	    -32.62473297	     -1.55040415	     52.15075760	     30.94033935	     15.88621990	      3.18167812	    -32.27346051	     13.77967170	     -8.17086516	    -31.04898240	      8.95939165	    -15.83340844	     -1.32166538
      4.05000000	    -10.49767754	     13.89185430	     -1.82759833	     -0.24320713	     -0.04681232	      0.69313653	     22.71465933	    -17.17659856	      3.67185176	    -67.60037364	    -31.65685308	     -2.24538544	     51.19349007	     29.92745529	     16.04065973	      3.63992227	    -31.64432293	     13.92844985	     -8.46717562	    -31.33161130	      8.94013866	    -15.80410982	     -1.44178491
      4.05500000	    -10.40434809	     13.90202677	     -1.77779348	     -0.23578002	     -0.04496604	      0.69284095	     23.59961344	    -17.22979421	      3.60967315	    -68.39146296	    -30.84167527	     -2.99695504	     50.72380071	     28.93387057	     16.22343727	      4.10336250	    -30.95320114	     13.98924407	     -8.80767746	    -31.52109510	      8.99220737	    -15.81079242	     -1.58121923
      4.06000000	    -10.28134017	     13.83604975	     -1.75454520	     -0.22844022	     -0.04304400	      0.69250980	     24.44161041	    -17.18616325	      3.53783603	    -69.10221561	    -30.18159733	     -3.78500350	     49.91932704	     27.89508711	     16.34461874	      4.67456595	    -30.23934910	     13.99428146	     -9.33200204	    -31.86650525	      8.99196457	    -15.71758971	     -1.68032430
      4.06500000	    -10.11756072	     13.70843294	     -1.70864161	     -0.22111694	     -0.04113616	      0.69228172	     25.20316860	    -17.06667835	      3.40997534	    -69.79269230	    -29.40082387	     -4.36797738	     48.10236599	     26.82232034	     16.38562202	      5.25588492	    -29.59353792	     14.42714770	     -9.54957122	    -32.99188445	      8.92751824	    -15.57985136	     -1.81822948
      4.07000000	    -10.07063543	     13.65487719	     -1.67907958	     -0.21380126	     -0.03934758	      0.69190663	     26.09630585	    -17.01635439	      3.37392793	    -70.32626202	    -28.96001237	     -5.19136830	     47.80113944	     25.85619877	     16.50406438	      5.83558465	    -28.84199185	     14.33680724	    -10.16071497	    -33.35824140	      9.00806930	    -15.48633296	     -1.92162978
      4.07500000	     -9.89169735	     13.50943229	     -1.58850669	     -0.20649727	     -0.03744344	      0.69158470	     26.77516634	    -16.89841429	      3.16327634	    -70.82099338	    -28.47347385	     -6.03725949	     46.30604658	     24.73545599	     16.54835184	      6.55915360	    -28.15742832	     14.76284903	    -10.42791537	    -34.69709352	      8.90163367	    -15.32864486	     -2.12237949
      4.08000000	     -9.85143841	     13.45290393	     -1.50502461	     -0.19916201	     -0.03574742	      0.69116803	     27.60748195	    -16.86049486	      3.04846545	    -71.21144451	    -28.07173072	     -6.93158535	     45.79215419	     23.76224305	     16.66403438	      7.18465620	    -27.39888704	     14.74025705	    -10.97856824	    -35.34206664	      8.97169779	    -15.24066460	     -2.28665749
      4.08500000	     -9.76472412	     13.30735866	     -1.43323281	     -0.19201397	     -0.03406014	      0.69076447	     28.37131420	    -16.70701744	      2.90925807	    -71.54014941	    -27.72611135	     -7.84710256	     45.02061845	     22.75785905	     16.68474276	      7.89077031	    -26.68876261	     14.75991302	    -11.47698192	    -35.89531306	      8.94207081	    -15.05512970	     -2.47989420
      4.09000000	     -9.68488742	     13.13914915	     -1.32189606	     -0.18468717	     -0.03234619	      0.69037076	     29.06992653	    -16.54743319	      2.69810649	    -71.77313580	    -27.33098757	     -8.69894592	     43.94077638	     21.72545420	     16.66600370	      8.58837135	    -25.94397612	     14.85981401	    -11.85781371	    -36.60044969	      8.94545053	    -14.85474621	     -2.67503177
      4.09500000	     -9.59736631	     12.90768975	     -1.25716998	     -0.17760214	     -0.03074908	      0.69005130	     29.77123286	    -16.26860415	      2.53933775	    -71.98681225	    -26.77786907	     -9.34347856	     42.42740913	     20.74393810	     16.55178685	      9.23449316	    -25.28370134	     15.21342354	    -12.16920423	    -37.87484062	      8.89825176	    -14.57836810	     -2.88161722
      4.10000000	     -9.59930877	     12.75993934	     -1.14404687	     -0.17051771	     -0.02933615	      0.68959286	     30.55188062	    -16.10983112	      2.38235542	    -72.08908870	    -26.38935556	    -10.21415404	     41.95105195	     19.84276891	     16.53466683	      9.91348107	    -24.55810708	     15.11525167	    -12.72141277	    -38.23811699	      8.94313213	    -14.39082322	     -3.11452207
      4.10500000	     -9.50900458	     12.51219168	     -1.03897210	     -0.16340973	     -0.02782564	      0.68926699	     31.17293371	    -15.84289507	      2.13412323	    -72.14231503	    -25.77879073	    -10.86594494	     40.34791878	     18.85292399	     16.37865365	     10.54602937	    -23.88230417	     15.38722760	    -12.98319528	    -39.25104408	      8.88292755	    -14.10492304	     -3.35654923
      4.11000000	     -9.52852689	     12.31412991	     -0.89476632	     -0.15645671	     -0.02657277	      0.68876803	     31.91566610	    -15.64600326	      1.92156839	    -72.10583409	    -25.32153557	    -11.65673755	     39.77700718	     18.00871519	     16.29158226	     11.20905487	    -23.21469216	     15.29353067	    -13.49430617	    -39.58152602	      8.91293836	    -13.86161796	     -3.64787757
      4.11500000	     -9.46174514	     12.05995302	     -0.79016761	     -0.14945558	     -0.02526941	      0.68848253	     32.53024353	    -15.36493092	      1.67907433	    -72.03402811	    -24.63533784	    -12.17167800	     38.13516935	     17.07908383	     16.09623124	     11.78550375	    -22.57275880	     15.51722395	    -13.71546399	    -40.38612554	      8.85784005	    -13.57514697	     -3.89009799
      4.12000000	     -9.44416036	     11.81442471	     -0.65162810	     -0.14256863	     -0.02412550	      0.68808403	     33.18126408	    -15.11589046	      1.42978299	    -71.87432911	    -24.06008828	    -12.75344638	     37.05610900	     16.22725854	     15.92180861	     12.39981705	    -21.96165784	     15.60793848	    -14.02683651	    -40.94458425	      8.82936171	    -13.29189264	     -4.18288206
      4.12500000	     -9.47159630	     11.56505631	     -0.47380641	     -0.13572710	     -0.02311264	      0.68760658	     33.85028217	    -14.89366112	      1.14749010	    -71.62561162	    -23.57183403	    -13.37836247	     36.35619085	     15.43860052	     15.74425343	     13.02612177	    -21.37412471	     15.57232725	    -14.33945005	    -41.11572907	      8.83456843	    -13.00711472	     -4.51768611
      4.13000000	     -9.44448111	     11.28812895	     -0.32749658	     -0.12894436	     -0.02213287	      0.68723202	     34.44502748	    -14.62317778	      0.87081033	    -71.32442709	    -23.03781323	    -13.89971501	     35.27743177	     14.61568152	     15.51100721	     13.58853524	    -20.81556838	     15.60368283	    -14.56047604	    -41.26308037	      8.77034876	    -12.69370841	     -4.84787953
      4.13500000	     -9.43136376	     11.02335617	     -0.19875254	     -0.12221629	     -0.02128474	      0.68691976	     35.05286431	    -14.34979411	      0.62960267	    -70.97337834	    -22.50256072	    -14.33196289	     34.15539687	     13.83259661	     15.26855134	     14.09071597	    -20.28143380	     15.66485114	    -14.72623952	    -41.37482734	      8.71501342	    -12.39729497	     -5.15013102
      4.14000000	     -9.41916155	     10.76456144	     -0.07566641	     -0.11553462	     -0.02053580	      0.68660329	     35.64730165	    -14.08153632	      0.40582297	    -70.55515164	    -22.01270150	    -14.74244793	     33.12076883	     13.07214383	     15.02063853	     14.54736998	    -19.76923106	     15.73415927	    -14.86587580	    -41.45724923	      8.65332473	    -12.09741886	     -5.45728565
      4.14500000	     -9.40139749	     10.51327917	      0.04310458	     -0.10889544	     -0.01988139	      0.68630907	     36.22084949	    -13.81981975	      0.19331261	    -70.07453761	    -21.56431443	    -15.13920447	     32.11187888	     12.32394265	     14.76877914	     14.97064134	    -19.27567361	     15.81818105	    -14.98644266	    -41.53169841	      8.57656288	    -11.80512767	     -5.77129477
      4.15000000	     -9.37905770	     10.27151300	      0.16665966	     -0.10230490	     -0.01931535	      0.68608102	     36.77287480	    -13.56580240	     -0.01093705	    -69.53609706	    -21.14790143	    -15.51195415	     31.09587294	     11.58541961	     14.51165211	     15.36139332	    -18.79416703	     15.92069814	    -15.07643770	    -41.61446531	      8.48232333	    -11.53741211	     -6.07897594
      4.15500000	     -9.35406307	     10.04463305	      0.27929455	     -0.09574482	     -0.01884523	      0.68583777	     37.30854402	    -13.32340884	     -0.18749721	    -68.93799300	    -20.75752284	    -15.85197838	     30.11372438	     10.86234247	     14.26188576	     15.71685538	    -18.33533100	     16.04159877	    -15.13133159	    -41.70059580	      8.38336389	    -11.27045241	     -6.38526704
      4.16000000	     -9.32405652	      9.83188793	      0.39606763	     -0.08922381	     -0.01846203	      0.68563004	     37.81940900	    -13.09247621	     -0.34483774	    -68.28071827	    -20.38305493	    -16.16054871	     29.15217605	     10.14976212	     14.01755011	     16.04072152	    -17.89656024	     16.17748120	    -15.14695118	    -41.77609802	      8.26878291	    -11.02575545	     -6.69255562
      4.16500000	     -9.29111295	      9.63126517	      0.51312668	     -0.08273824	     -0.01816792	      0.68543092	     38.30726641	    -12.87153789	     -0.47976329	    -67.56385173	    -20.01872844	    -16.42917866	     28.24479379	      9.45111822	     13.77967753	     16.33216974	    -17.48197116	     16.31960433	    -15.12345986	    -41.81366050	      8.14407192	    -10.79241358	     -7.00464436
      4.17000000	     -9.24998562	      9.44973991	      0.62639547	     -0.07627890	     -0.01795313	      0.68525813	     38.76756836	    -12.66327630	     -0.58451805	    -66.79066225	    -19.64374161	    -16.63974021	     27.34624088	      8.75858849	     13.55425606	     16.59434511	    -17.08921185	     16.46266000	    -15.05274449	    -41.79676964	      8.00642136	    -10.57870839	     -7.30818082
      4.17500000	     -9.21052838	      9.27461285	      0.73554669	     -0.06986890	     -0.01783191	      0.68509322	     39.21095755	    -12.45210310	     -0.65253409	    -65.95822033	    -19.27333125	    -16.79109433	     26.54899814	      8.08569198	     13.33167502	     16.81799299	    -16.71961765	     16.60727919	    -14.96383450	    -41.70963507	      7.86234486	    -10.36878013	     -7.63093509
